# Blender 4.0.2
# www.blender.org
mtllib eco_vent_switched_on.mtl
o Cylinder.001
v -0.000000 0.341384 -1.220000
v -0.000000 0.241384 -1.220000
v 0.466874 0.341384 -1.127133
v 0.466874 0.241384 -1.127133
v 0.862670 0.341384 -0.862670
v 0.862670 0.241384 -0.862670
v 1.127133 0.341384 -0.466874
v 1.127133 0.241384 -0.466874
v 1.220000 0.341384 0.000000
v 1.220000 0.241384 0.000000
v 1.127133 0.341384 0.466874
v 1.127133 0.241384 0.466874
v 0.862670 0.341384 0.862670
v 0.862670 0.241384 0.862670
v 0.466874 0.341384 1.127133
v 0.466874 0.241384 1.127133
v -0.000000 0.341384 1.220000
v -0.000000 0.241384 1.220000
v -0.466874 0.341384 1.127133
v -0.466874 0.241384 1.127133
v -0.862670 0.341384 0.862670
v -0.862670 0.241384 0.862670
v -1.127133 0.341384 0.466874
v -1.127133 0.241384 0.466874
v -1.220000 0.341384 0.000000
v -1.220000 0.241384 0.000000
v -1.127133 0.341384 -0.466874
v -1.127133 0.241384 -0.466874
v -0.862670 0.341384 -0.862670
v -0.862670 0.241384 -0.862670
v -0.466874 0.341384 -1.127133
v -0.466874 0.241384 -1.127133
v 0.000000 -0.245499 -3.283401
v 1.256503 -0.245499 -3.033466
v 2.321715 -0.245499 -2.321715
v 3.033466 -0.245499 -1.256503
v 3.283401 -0.245499 -0.000000
v 3.033466 -0.245499 1.256503
v 2.321715 -0.245499 2.321715
v 1.256503 -0.245499 3.033466
v 0.000000 -0.245499 3.283401
v -1.256503 -0.245499 3.033466
v -2.321715 -0.245499 2.321715
v -3.033466 -0.245499 1.256503
v -3.283401 -0.245499 -0.000000
v -3.033466 -0.245499 -1.256503
v -2.321715 -0.245499 -2.321715
v -1.256503 -0.245499 -3.033466
v 0.000000 0.363112 0.500000
v 0.191342 0.363112 0.461940
v 0.000000 -0.636888 -0.000000
v -0.191342 0.363112 0.461940
v -0.353553 0.363112 0.353553
v -0.461940 0.363112 0.191342
v -0.500000 0.363112 0.000000
v -0.461940 0.363112 -0.191342
v -0.353553 0.363112 -0.353553
v -0.191342 0.363112 -0.461940
v 0.000000 0.363112 -0.500000
v 0.191342 0.363112 -0.461940
v 0.353553 0.363112 -0.353553
v 0.461940 0.363112 -0.191342
v 0.500000 0.363112 0.000000
v 0.461940 0.363112 0.191342
v 0.353553 0.363112 0.353553
v -0.000000 0.609197 0.787713
v 0.301445 0.609197 0.727751
v -0.301445 0.609197 0.727751
v -0.556997 0.609197 0.556997
v -0.727751 0.609197 0.301445
v -0.787713 0.609197 0.000000
v -0.727751 0.609197 -0.301445
v -0.556997 0.609197 -0.556997
v -0.301445 0.609197 -0.727751
v -0.000000 0.609197 -0.787712
v 0.301445 0.609197 -0.727751
v 0.556997 0.609197 -0.556997
v 0.727751 0.609197 -0.301445
v 0.787713 0.609197 0.000000
v 0.727751 0.609197 0.301445
v 0.556997 0.609197 0.556997
v -0.000000 0.800739 1.222943
v 0.468000 0.800740 1.129852
v -0.468000 0.800740 1.129852
v -0.864751 0.800740 0.864751
v -1.129852 0.800740 0.468000
v -1.222943 0.800740 0.000000
v -1.129852 0.800740 -0.468000
v -0.864751 0.800740 -0.864751
v -0.468000 0.800740 -1.129852
v -0.000000 0.800740 -1.222943
v 0.468000 0.800740 -1.129852
v 0.864751 0.800740 -0.864751
v 1.129852 0.800740 -0.468000
v 1.222943 0.800740 0.000000
v 1.129852 0.800740 0.468000
v 0.864751 0.800740 0.864751
v -0.000000 0.844402 1.222943
v 0.468000 0.844402 1.129852
v -0.468000 0.844402 1.129852
v -0.864751 0.844402 0.864751
v -1.129852 0.844402 0.468000
v -1.222943 0.844402 0.000000
v -1.129852 0.844402 -0.468000
v -0.864751 0.844402 -0.864751
v -0.468000 0.844402 -1.129852
v -0.000000 0.844402 -1.222943
v 0.468000 0.844402 -1.129852
v 0.864751 0.844402 -0.864751
v 1.129852 0.844402 -0.468000
v 1.222943 0.844402 0.000000
v 1.129852 0.844402 0.468000
v 0.864751 0.844402 0.864751
v -0.000000 0.896555 0.898555
v 0.343862 0.896555 0.830156
v -0.343862 0.896555 0.830156
v -0.635374 0.896555 0.635374
v -0.830156 0.896555 0.343862
v -0.898555 0.896555 0.000000
v -0.830156 0.896555 -0.343862
v -0.635374 0.896555 -0.635374
v -0.343862 0.896555 -0.830156
v -0.000000 0.896555 -0.898555
v 0.343862 0.896555 -0.830156
v 0.635374 0.896555 -0.635374
v 0.830156 0.896555 -0.343862
v 0.898555 0.896555 0.000000
v 0.830156 0.896555 0.343862
v 0.635374 0.896555 0.635374
v -0.000000 0.929581 0.592059
v 0.226571 0.929581 0.546991
v -0.226571 0.929581 0.546991
v -0.418649 0.929581 0.418649
v -0.546991 0.929581 0.226571
v -0.592059 0.929581 0.000000
v -0.546991 0.929581 -0.226571
v -0.418649 0.929581 -0.418649
v -0.226571 0.929581 -0.546991
v -0.000000 0.929581 -0.592059
v 0.226571 0.929581 -0.546991
v 0.418649 0.929581 -0.418649
v 0.546991 0.929581 -0.226571
v 0.592059 0.929581 0.000000
v 0.546991 0.929581 0.226571
v 0.418649 0.929581 0.418649
v -0.000000 0.944304 0.243387
v 0.093140 0.944304 0.224860
v -0.093140 0.944304 0.224860
v -0.172101 0.944304 0.172101
v -0.224860 0.944304 0.093140
v -0.243387 0.944304 0.000000
v -0.224860 0.944304 -0.093140
v -0.172101 0.944304 -0.172101
v -0.093140 0.944304 -0.224860
v -0.000000 0.944304 -0.243387
v 0.093140 0.944304 -0.224860
v 0.172101 0.944304 -0.172101
v 0.224860 0.944304 -0.093140
v 0.243387 0.944304 0.000000
v 0.224860 0.944304 0.093140
v 0.172101 0.944304 0.172101
vn -0.1951 -0.0000 0.9808
vn -0.5556 -0.0000 0.8315
vn -0.8315 -0.0000 0.5556
vn -0.9808 -0.0000 0.1951
vn -0.9808 -0.0000 -0.1951
vn -0.8315 -0.0000 -0.5556
vn -0.5556 -0.0000 -0.8315
vn -0.1951 -0.0000 -0.9808
vn 0.1951 -0.0000 -0.9808
vn 0.5556 -0.0000 -0.8315
vn 0.8315 -0.0000 -0.5556
vn 0.9808 -0.0000 -0.1951
vn 0.9808 -0.0000 0.1951
vn 0.8315 -0.0000 0.5556
vn -0.0000 1.0000 -0.0000
vn 0.5556 -0.0000 0.8315
vn 0.1951 -0.0000 0.9808
vn 0.2732 0.9604 0.0543
vn -0.1547 0.9604 0.2316
vn -0.1547 0.9604 -0.2316
vn 0.2316 0.9604 -0.1547
vn 0.0543 0.9604 0.2732
vn -0.2732 0.9604 -0.0543
vn 0.0543 0.9604 -0.2732
vn 0.2316 0.9604 0.1547
vn -0.2316 0.9604 0.1547
vn -0.0543 0.9604 -0.2732
vn 0.2732 0.9604 -0.0543
vn -0.0543 0.9604 0.2732
vn -0.2316 0.9604 -0.1547
vn 0.1547 0.9604 -0.2316
vn 0.1547 0.9604 0.2316
vn -0.2732 0.9604 0.0543
vn 0.6446 -0.7537 0.1282
vn 0.1752 -0.4403 0.8806
vn -0.1752 -0.4403 0.8806
vn -0.4988 -0.4403 0.7465
vn -0.7465 -0.4403 0.4988
vn -0.8806 -0.4403 0.1752
vn -0.8806 -0.4403 -0.1752
vn -0.7465 -0.4403 -0.4988
vn -0.4988 -0.4403 -0.7465
vn -0.1752 -0.4403 -0.8806
vn 0.1752 -0.4403 -0.8806
vn 0.4988 -0.4403 -0.7465
vn 0.7465 -0.4403 -0.4988
vn 0.8806 -0.4403 -0.1752
vn 0.8806 -0.4403 0.1752
vn 0.7465 -0.4403 0.4988
vn 0.4988 -0.4403 0.7465
vn 0.2274 -0.9124 0.3404
vn -0.3652 -0.7537 0.5465
vn -0.5465 -0.7537 -0.3652
vn 0.3652 -0.7537 -0.5465
vn 0.5465 -0.7537 0.3652
vn -0.5465 -0.7537 0.3652
vn -0.3652 -0.7537 -0.5465
vn 0.5465 -0.7537 -0.3652
vn 0.3652 -0.7537 0.5465
vn -0.6446 -0.7537 0.1282
vn 0.1282 -0.7537 0.6446
vn -0.1282 -0.7537 -0.6446
vn 0.6446 -0.7537 -0.1282
vn -0.6446 -0.7537 -0.1282
vn -0.1282 -0.7537 0.6446
vn 0.1282 -0.7537 -0.6446
vn -0.0799 -0.9124 -0.4015
vn -0.0799 -0.9124 0.4015
vn 0.0799 -0.9124 -0.4015
vn -0.2274 -0.9124 0.3404
vn 0.2274 -0.9124 -0.3404
vn -0.3404 -0.9124 0.2274
vn 0.3404 -0.9124 -0.2274
vn -0.4015 -0.9124 0.0799
vn 0.4015 -0.9124 -0.0799
vn -0.4015 -0.9124 -0.0799
vn 0.4015 -0.9124 0.0799
vn -0.3404 -0.9124 -0.2274
vn 0.3404 -0.9124 0.2274
vn -0.2274 -0.9124 -0.3404
vn 0.0799 -0.9124 0.4015
vn 0.1587 0.9868 -0.0316
vn -0.0607 0.9940 0.0908
vn -0.1587 0.9868 -0.0316
vn 0.1587 0.9868 0.0316
vn -0.1345 0.9868 -0.0899
vn 0.1345 0.9868 0.0899
vn -0.0899 0.9868 -0.1345
vn 0.0316 0.9868 0.1587
vn 0.0899 0.9868 0.1345
vn -0.0316 0.9868 -0.1587
vn -0.0316 0.9868 0.1587
vn 0.0316 0.9868 -0.1587
vn -0.0899 0.9868 0.1345
vn 0.0899 0.9868 -0.1345
vn -0.1345 0.9868 0.0899
vn 0.1345 0.9868 -0.0899
vn -0.1587 0.9868 0.0316
vn -0.0239 0.9991 -0.0358
vn 0.0607 0.9940 -0.0908
vn -0.0908 0.9940 0.0607
vn 0.0908 0.9940 -0.0607
vn -0.1071 0.9940 0.0213
vn 0.1071 0.9940 -0.0213
vn -0.1071 0.9940 -0.0213
vn 0.1071 0.9940 0.0213
vn -0.0908 0.9940 -0.0607
vn 0.0908 0.9940 0.0607
vn -0.0607 0.9940 -0.0908
vn 0.0213 0.9940 0.1071
vn 0.0607 0.9940 0.0908
vn -0.0213 0.9940 -0.1071
vn -0.0213 0.9940 0.1071
vn 0.0213 0.9940 -0.1071
vn 0.0084 0.9991 0.0422
vn 0.0239 0.9991 0.0358
vn -0.0084 0.9991 -0.0422
vn -0.0084 0.9991 0.0422
vn 0.0084 0.9991 -0.0422
vn -0.0239 0.9991 0.0358
vn 0.0239 0.9991 -0.0358
vn -0.0358 0.9991 0.0239
vn 0.0358 0.9991 -0.0239
vn -0.0422 0.9991 0.0084
vn 0.0422 0.9991 -0.0084
vn -0.0422 0.9991 -0.0084
vn 0.0422 0.9991 0.0084
vn -0.0358 0.9991 -0.0239
vn 0.0358 0.9991 0.0239
vt 0.062500 0.984375
vt 0.062500 1.000000
vt 0.000000 1.000000
vt 0.000000 0.984375
vt 0.448781 0.250000
vt 0.390559 0.390559
vt 0.109441 0.109441
vt 0.468750 1.000000
vt 0.390625 1.000000
vt 0.359375 0.625000
vt 0.500000 0.625000
vt 0.843750 1.000000
vt 0.765625 1.000000
vt 0.734375 0.625000
vt 0.875000 0.625000
vt 0.218750 1.000000
vt 0.140625 1.000000
vt 0.109375 0.625000
vt 0.250000 0.625000
vt 0.718750 1.000000
vt 0.640625 1.000000
vt 0.609375 0.625000
vt 0.750000 0.625000
vt 0.093750 1.000000
vt 0.015625 1.000000
vt -0.015625 0.625000
vt 0.125000 0.625000
vt 0.968750 1.000000
vt 0.890625 1.000000
vt 0.859375 0.625000
vt 1.000000 0.625000
vt 0.343750 1.000000
vt 0.265625 1.000000
vt 0.234375 0.625000
vt 0.375000 0.625000
vt 0.593750 1.000000
vt 0.515625 1.000000
vt 0.484375 0.625000
vt 0.625000 0.625000
vt 0.326070 0.433649
vt 0.250000 0.448781
vt 0.173930 0.433649
vt 0.109441 0.390559
vt 0.066351 0.326070
vt 0.051219 0.250000
vt 0.066351 0.173930
vt 0.173930 0.066351
vt 0.250000 0.051219
vt 0.326070 0.066351
vt 0.390559 0.109441
vt 0.433649 0.173930
vt 0.433649 0.326070
vt 0.054688 0.531250
vt 0.101562 0.531250
vt 0.046875 0.625000
vt 0.023438 0.421875
vt 0.000000 0.625000
vt 0.125000 0.531250
vt 0.187500 0.531250
vt 0.203125 0.625000
vt 0.203125 0.609375
vt 0.296875 0.609375
vt 0.296875 0.625000
vt 0.296875 0.531250
vt 0.390625 0.531250
vt 0.375000 0.593750
vt 0.312500 0.593750
vt 0.453125 0.531250
vt 0.445312 0.593750
vt 0.398438 0.593750
vt 0.460938 0.531250
vt 0.507812 0.531250
vt 0.492188 0.593750
vt 0.476562 0.593750
vt 0.626774 0.567026
vt 0.598276 0.498226
vt 0.529476 0.526724
vt 0.557974 0.595524
vt 0.578125 0.599532
vt 0.598276 0.595524
vt 0.615359 0.584109
vt 0.630782 0.546875
vt 0.626774 0.526724
vt 0.615359 0.509641
vt 0.578125 0.494218
vt 0.557974 0.498226
vt 0.540891 0.509641
vt 0.525468 0.546875
vt 0.529476 0.567026
vt 0.540891 0.584109
s 0
usemtl eco_vent.001
f 1/1/1 2/2/1 4/3/1 3/4/1
f 3/1/2 4/2/2 6/3/2 5/4/2
f 5/1/3 6/2/3 8/3/3 7/4/3
f 7/1/4 8/2/4 10/3/4 9/4/4
f 9/1/5 10/2/5 12/3/5 11/4/5
f 11/1/6 12/2/6 14/3/6 13/4/6
f 13/1/7 14/2/7 16/3/7 15/4/7
f 15/1/8 16/2/8 18/3/8 17/4/8
f 17/1/9 18/2/9 20/3/9 19/4/9
f 19/1/10 20/2/10 22/3/10 21/4/10
f 21/1/11 22/2/11 24/3/11 23/4/11
f 23/1/12 24/2/12 26/3/12 25/4/12
f 25/1/13 26/2/13 28/3/13 27/4/13
f 27/1/14 28/2/14 30/3/14 29/4/14
f 10/5/15 6/6/15 22/7/15
f 29/1/16 30/2/16 32/3/16 31/4/16
f 31/1/17 32/2/17 2/3/17 1/4/17
f 9/8/18 11/9/18 38/10/18 37/11/18
f 19/12/19 21/13/19 43/14/19 42/15/19
f 29/16/20 31/17/20 48/18/20 47/19/20
f 5/20/21 7/21/21 36/22/21 35/23/21
f 15/24/22 17/25/22 41/26/22 40/27/22
f 25/8/23 27/9/23 46/10/23 45/11/23
f 1/28/24 3/29/24 34/30/24 33/31/24
f 11/32/25 13/33/25 39/34/25 38/35/25
f 21/20/26 23/21/26 44/22/26 43/23/26
f 31/24/27 1/25/27 33/26/27 48/27/27
f 7/36/28 9/37/28 37/38/28 36/39/28
f 17/28/29 19/29/29 42/30/29 41/31/29
f 27/32/30 29/33/30 47/34/30 46/35/30
f 3/12/31 5/13/31 35/14/31 34/15/31
f 13/16/32 15/17/32 40/18/32 39/19/32
f 23/36/33 25/37/33 45/38/33 44/39/33
f 6/6/15 4/40/15 2/41/15
f 2/41/15 32/42/15 30/43/15
f 30/43/15 28/44/15 26/45/15
f 26/45/15 24/46/15 22/7/15
f 22/7/15 20/47/15 18/48/15
f 18/48/15 16/49/15 14/50/15
f 14/50/15 12/51/15 10/5/15
f 10/5/15 8/52/15 6/6/15
f 6/6/15 2/41/15 30/43/15
f 30/43/15 26/45/15 6/6/15
f 26/45/15 22/7/15 6/6/15
f 22/7/15 18/48/15 14/50/15
f 14/50/15 10/5/15 22/7/15
usemtl eco_vent
f 64/53/34 63/54/34 79/18/34 80/55/34
f 49/55/35 51/56/35 50/57/35
f 52/55/36 51/56/36 49/57/36
f 53/55/37 51/56/37 52/57/37
f 54/55/38 51/56/38 53/57/38
f 55/55/39 51/56/39 54/57/39
f 56/55/40 51/56/40 55/57/40
f 57/55/41 51/56/41 56/57/41
f 58/55/42 51/56/42 57/57/42
f 59/55/43 51/56/43 58/57/43
f 60/55/44 51/56/44 59/57/44
f 61/55/45 51/56/45 60/57/45
f 62/55/46 51/56/46 61/57/46
f 63/55/47 51/56/47 62/57/47
f 64/55/48 51/56/48 63/57/48
f 65/55/49 51/56/49 64/57/49
f 50/55/50 51/56/50 65/57/50
f 67/58/51 81/59/51 97/60/51 83/18/51
f 53/53/52 52/54/52 68/18/52 69/55/52
f 57/53/53 56/54/53 72/18/53 73/55/53
f 61/53/54 60/54/54 76/18/54 77/55/54
f 65/53/55 64/54/55 80/18/55 81/55/55
f 54/53/56 53/54/56 69/18/56 70/55/56
f 58/53/57 57/54/57 73/18/57 74/55/57
f 62/53/58 61/54/58 77/18/58 78/55/58
f 50/53/59 65/54/59 81/18/59 67/55/59
f 55/53/60 54/54/60 70/18/60 71/55/60
f 49/53/61 50/54/61 67/18/61 66/55/61
f 59/53/62 58/54/62 74/18/62 75/55/62
f 63/53/63 62/54/63 78/18/63 79/55/63
f 56/53/64 55/54/64 71/18/64 72/55/64
f 52/53/65 49/54/65 66/18/65 68/55/65
f 60/53/66 59/54/66 75/18/66 76/55/66
f 96/61/13 95/62/13 111/63/13 112/60/13
f 75/58/67 74/59/67 90/60/67 91/18/67
f 68/58/68 66/59/68 82/60/68 84/18/68
f 76/58/69 75/59/69 91/60/69 92/18/69
f 69/58/70 68/59/70 84/60/70 85/18/70
f 77/58/71 76/59/71 92/60/71 93/18/71
f 70/58/72 69/59/72 85/60/72 86/18/72
f 78/58/73 77/59/73 93/60/73 94/18/73
f 71/58/74 70/59/74 86/60/74 87/18/74
f 79/58/75 78/59/75 94/60/75 95/18/75
f 72/58/76 71/59/76 87/60/76 88/18/76
f 80/58/77 79/59/77 95/60/77 96/18/77
f 73/58/78 72/59/78 88/60/78 89/18/78
f 81/58/79 80/59/79 96/60/79 97/18/79
f 74/58/80 73/59/80 89/60/80 90/18/80
f 66/58/81 67/59/81 83/60/81 82/18/81
f 111/64/82 110/65/82 126/66/82 127/67/82
f 89/61/6 88/62/6 104/63/6 105/60/6
f 97/61/14 96/62/14 112/63/14 113/60/14
f 90/61/7 89/62/7 105/63/7 106/60/7
f 82/61/17 83/62/17 99/63/17 98/60/17
f 83/61/16 97/62/16 113/63/16 99/60/16
f 91/61/8 90/62/8 106/63/8 107/60/8
f 84/61/1 82/62/1 98/63/1 100/60/1
f 92/61/9 91/62/9 107/63/9 108/60/9
f 85/61/2 84/62/2 100/63/2 101/60/2
f 93/61/10 92/62/10 108/63/10 109/60/10
f 86/61/3 85/62/3 101/63/3 102/60/3
f 94/61/11 93/62/11 109/63/11 110/60/11
f 87/61/4 86/62/4 102/63/4 103/60/4
f 95/61/12 94/62/12 110/63/12 111/60/12
f 88/61/5 87/62/5 103/63/5 104/60/5
f 117/65/83 116/68/83 132/69/83 133/70/83
f 104/64/84 103/65/84 119/66/84 120/67/84
f 112/64/85 111/65/85 127/66/85 128/67/85
f 105/64/86 104/65/86 120/66/86 121/67/86
f 113/64/87 112/65/87 128/66/87 129/67/87
f 106/64/88 105/65/88 121/66/88 122/67/88
f 98/64/89 99/65/89 115/66/89 114/67/89
f 99/64/90 113/65/90 129/66/90 115/67/90
f 107/64/91 106/65/91 122/66/91 123/67/91
f 100/64/92 98/65/92 114/66/92 116/67/92
f 108/64/93 107/65/93 123/66/93 124/67/93
f 101/64/94 100/65/94 116/66/94 117/67/94
f 109/64/95 108/65/95 124/66/95 125/67/95
f 102/64/96 101/65/96 117/66/96 118/67/96
f 110/64/97 109/65/97 125/66/97 126/67/97
f 103/64/98 102/65/98 118/66/98 119/67/98
f 138/71/99 137/72/99 153/73/99 154/74/99
f 125/65/100 124/68/100 140/69/100 141/70/100
f 118/65/101 117/68/101 133/69/101 134/70/101
f 126/65/102 125/68/102 141/69/102 142/70/102
f 119/65/103 118/68/103 134/69/103 135/70/103
f 127/65/104 126/68/104 142/69/104 143/70/104
f 120/65/105 119/68/105 135/69/105 136/70/105
f 128/65/106 127/68/106 143/69/106 144/70/106
f 121/65/107 120/68/107 136/69/107 137/70/107
f 129/65/108 128/68/108 144/69/108 145/70/108
f 122/65/109 121/68/109 137/69/109 138/70/109
f 114/65/110 115/68/110 131/69/110 130/70/110
f 115/65/111 129/68/111 145/69/111 131/70/111
f 123/65/112 122/68/112 138/69/112 139/70/112
f 116/65/113 114/68/113 130/69/113 132/70/113
f 124/65/114 123/68/114 139/69/114 140/70/114
f 160/75/15 156/76/15 152/77/15
f 130/71/115 131/72/115 147/73/115 146/74/115
f 131/71/116 145/72/116 161/73/116 147/74/116
f 139/71/117 138/72/117 154/73/117 155/74/117
f 132/71/118 130/72/118 146/73/118 148/74/118
f 140/71/119 139/72/119 155/73/119 156/74/119
f 133/71/120 132/72/120 148/73/120 149/74/120
f 141/71/121 140/72/121 156/73/121 157/74/121
f 134/71/122 133/72/122 149/73/122 150/74/122
f 142/71/123 141/72/123 157/73/123 158/74/123
f 135/71/124 134/72/124 150/73/124 151/74/124
f 143/71/125 142/72/125 158/73/125 159/74/125
f 136/71/126 135/72/126 151/73/126 152/74/126
f 144/71/127 143/72/127 159/73/127 160/74/127
f 137/71/128 136/72/128 152/73/128 153/74/128
f 145/71/129 144/72/129 160/73/129 161/74/129
f 148/78/15 146/79/15 160/75/15
f 146/79/15 147/80/15 160/75/15
f 147/80/15 161/81/15 160/75/15
f 160/75/15 159/82/15 158/83/15
f 158/83/15 157/84/15 156/76/15
f 156/76/15 155/85/15 154/86/15
f 154/86/15 153/87/15 152/77/15
f 152/77/15 151/88/15 148/78/15
f 151/88/15 150/89/15 148/78/15
f 150/89/15 149/90/15 148/78/15
f 160/75/15 158/83/15 156/76/15
f 156/76/15 154/86/15 152/77/15
f 148/78/15 160/75/15 152/77/15
