# Blender 4.0.2
# www.blender.org
mtllib eco_vent.mtl
o Cylinder.001
v -0.000000 0.341384 -1.220000
v -0.000000 0.241384 -1.220000
v 0.466874 0.341384 -1.127133
v 0.466874 0.241384 -1.127133
v 0.862670 0.341384 -0.862670
v 0.862670 0.241384 -0.862670
v 1.127133 0.341384 -0.466874
v 1.127133 0.241384 -0.466874
v 1.220000 0.341384 0.000000
v 1.220000 0.241384 0.000000
v 1.127133 0.341384 0.466874
v 1.127133 0.241384 0.466874
v 0.862670 0.341384 0.862670
v 0.862670 0.241384 0.862670
v 0.466874 0.341384 1.127133
v 0.466874 0.241384 1.127133
v -0.000000 0.341384 1.220000
v -0.000000 0.241384 1.220000
v -0.466874 0.341384 1.127133
v -0.466874 0.241384 1.127133
v -0.862670 0.341384 0.862670
v -0.862670 0.241384 0.862670
v -1.127133 0.341384 0.466874
v -1.127133 0.241384 0.466874
v -1.220000 0.341384 0.000000
v -1.220000 0.241384 0.000000
v -1.127133 0.341384 -0.466874
v -1.127133 0.241384 -0.466874
v -0.862670 0.341384 -0.862670
v -0.862670 0.241384 -0.862670
v -0.466874 0.341384 -1.127133
v -0.466874 0.241384 -1.127133
v 0.000000 -0.245499 -3.283401
v 1.256503 -0.245499 -3.033466
v 2.321715 -0.245499 -2.321715
v 3.033466 -0.245499 -1.256503
v 3.283401 -0.245499 -0.000000
v 3.033466 -0.245499 1.256503
v 2.321715 -0.245499 2.321715
v 1.256503 -0.245499 3.033466
v 0.000000 -0.245499 3.283401
v -1.256503 -0.245499 3.033466
v -2.321715 -0.245499 2.321715
v -3.033466 -0.245499 1.256503
v -3.283401 -0.245499 -0.000000
v -3.033466 -0.245499 -1.256503
v -2.321715 -0.245499 -2.321715
v -1.256503 -0.245499 -3.033466
vn -0.1951 -0.0000 0.9808
vn -0.5556 -0.0000 0.8315
vn -0.8315 -0.0000 0.5556
vn -0.9808 -0.0000 0.1951
vn -0.9808 -0.0000 -0.1951
vn -0.8315 -0.0000 -0.5556
vn -0.5556 -0.0000 -0.8315
vn -0.1951 -0.0000 -0.9808
vn 0.1951 -0.0000 -0.9808
vn 0.5556 -0.0000 -0.8315
vn 0.8315 -0.0000 -0.5556
vn 0.9808 -0.0000 -0.1951
vn 0.9808 -0.0000 0.1951
vn 0.8315 -0.0000 0.5556
vn -0.0000 1.0000 -0.0000
vn 0.5556 -0.0000 0.8315
vn 0.1951 -0.0000 0.9808
vn 0.2732 0.9604 0.0543
vn -0.1547 0.9604 0.2316
vn -0.1547 0.9604 -0.2316
vn 0.2316 0.9604 -0.1547
vn 0.0543 0.9604 0.2732
vn -0.2732 0.9604 -0.0543
vn 0.0543 0.9604 -0.2732
vn 0.2316 0.9604 0.1547
vn -0.2316 0.9604 0.1547
vn -0.0543 0.9604 -0.2732
vn 0.2732 0.9604 -0.0543
vn -0.0543 0.9604 0.2732
vn -0.2316 0.9604 -0.1547
vn 0.1547 0.9604 -0.2316
vn 0.1547 0.9604 0.2316
vn -0.2732 0.9604 0.0543
vt 0.062500 0.984375
vt 0.062500 1.000000
vt 0.000000 1.000000
vt 0.000000 0.984375
vt 0.448781 0.250000
vt 0.390559 0.390559
vt 0.109441 0.109441
vt 0.468750 1.000000
vt 0.390625 1.000000
vt 0.359375 0.625000
vt 0.500000 0.625000
vt 0.843750 1.000000
vt 0.765625 1.000000
vt 0.734375 0.625000
vt 0.875000 0.625000
vt 0.218750 1.000000
vt 0.140625 1.000000
vt 0.109375 0.625000
vt 0.250000 0.625000
vt 0.718750 1.000000
vt 0.640625 1.000000
vt 0.609375 0.625000
vt 0.750000 0.625000
vt 0.093750 1.000000
vt 0.015625 1.000000
vt -0.015625 0.625000
vt 0.125000 0.625000
vt 0.968750 1.000000
vt 0.890625 1.000000
vt 0.859375 0.625000
vt 1.000000 0.625000
vt 0.343750 1.000000
vt 0.265625 1.000000
vt 0.234375 0.625000
vt 0.375000 0.625000
vt 0.593750 1.000000
vt 0.515625 1.000000
vt 0.484375 0.625000
vt 0.625000 0.625000
vt 0.326070 0.433649
vt 0.250000 0.448781
vt 0.173930 0.433649
vt 0.109441 0.390559
vt 0.066351 0.326070
vt 0.051219 0.250000
vt 0.066351 0.173930
vt 0.173930 0.066351
vt 0.250000 0.051219
vt 0.326070 0.066351
vt 0.390559 0.109441
vt 0.433649 0.173930
vt 0.433649 0.326070
s 0
usemtl eco_vent.001
f 1/1/1 2/2/1 4/3/1 3/4/1
f 3/1/2 4/2/2 6/3/2 5/4/2
f 5/1/3 6/2/3 8/3/3 7/4/3
f 7/1/4 8/2/4 10/3/4 9/4/4
f 9/1/5 10/2/5 12/3/5 11/4/5
f 11/1/6 12/2/6 14/3/6 13/4/6
f 13/1/7 14/2/7 16/3/7 15/4/7
f 15/1/8 16/2/8 18/3/8 17/4/8
f 17/1/9 18/2/9 20/3/9 19/4/9
f 19/1/10 20/2/10 22/3/10 21/4/10
f 21/1/11 22/2/11 24/3/11 23/4/11
f 23/1/12 24/2/12 26/3/12 25/4/12
f 25/1/13 26/2/13 28/3/13 27/4/13
f 27/1/14 28/2/14 30/3/14 29/4/14
f 10/5/15 6/6/15 22/7/15
f 29/1/16 30/2/16 32/3/16 31/4/16
f 31/1/17 32/2/17 2/3/17 1/4/17
f 9/8/18 11/9/18 38/10/18 37/11/18
f 19/12/19 21/13/19 43/14/19 42/15/19
f 29/16/20 31/17/20 48/18/20 47/19/20
f 5/20/21 7/21/21 36/22/21 35/23/21
f 15/24/22 17/25/22 41/26/22 40/27/22
f 25/8/23 27/9/23 46/10/23 45/11/23
f 1/28/24 3/29/24 34/30/24 33/31/24
f 11/32/25 13/33/25 39/34/25 38/35/25
f 21/20/26 23/21/26 44/22/26 43/23/26
f 31/24/27 1/25/27 33/26/27 48/27/27
f 7/36/28 9/37/28 37/38/28 36/39/28
f 17/28/29 19/29/29 42/30/29 41/31/29
f 27/32/30 29/33/30 47/34/30 46/35/30
f 3/12/31 5/13/31 35/14/31 34/15/31
f 13/16/32 15/17/32 40/18/32 39/19/32
f 23/36/33 25/37/33 45/38/33 44/39/33
f 6/6/15 4/40/15 2/41/15
f 2/41/15 32/42/15 30/43/15
f 30/43/15 28/44/15 26/45/15
f 26/45/15 24/46/15 22/7/15
f 22/7/15 20/47/15 18/48/15
f 18/48/15 16/49/15 14/50/15
f 14/50/15 12/51/15 10/5/15
f 10/5/15 8/52/15 6/6/15
f 6/6/15 2/41/15 30/43/15
f 30/43/15 26/45/15 6/6/15
f 26/45/15 22/7/15 6/6/15
f 22/7/15 18/48/15 14/50/15
f 14/50/15 10/5/15 22/7/15
