# Blender 4.0.2
# www.blender.org
mtllib eco_vent_open.mtl
o Cylinder.001
v -0.000000 0.341384 -1.220000
v -0.000000 0.241384 -1.220000
v 0.466874 0.341384 -1.127133
v 0.466874 0.241384 -1.127133
v 0.862670 0.341384 -0.862670
v 0.862670 0.241384 -0.862670
v 1.127133 0.341384 -0.466874
v 1.127133 0.241384 -0.466874
v 1.220000 0.341384 0.000000
v 1.220000 0.241384 0.000000
v 1.127133 0.341384 0.466874
v 1.127133 0.241384 0.466874
v 0.862670 0.341384 0.862670
v 0.862670 0.241384 0.862670
v 0.466874 0.341384 1.127133
v 0.466874 0.241384 1.127133
v -0.000000 0.341384 1.220000
v -0.000000 0.241384 1.220000
v -0.466874 0.341384 1.127133
v -0.466874 0.241384 1.127133
v -0.862670 0.341384 0.862670
v -0.862670 0.241384 0.862670
v -1.127133 0.341384 0.466874
v -1.127133 0.241384 0.466874
v -1.220000 0.341384 0.000000
v -1.220000 0.241384 0.000000
v -1.127133 0.341384 -0.466874
v -1.127133 0.241384 -0.466874
v -0.862670 0.341384 -0.862670
v -0.862670 0.241384 -0.862670
v -0.466874 0.341384 -1.127133
v -0.466874 0.241384 -1.127133
v 0.000000 -0.245499 -3.283401
v 1.256503 -0.245499 -3.033466
v 2.321715 -0.245499 -2.321715
v 3.033466 -0.245499 -1.256503
v 3.283401 -0.245499 -0.000000
v 3.033466 -0.245499 1.256503
v 2.321715 -0.245499 2.321715
v 1.256503 -0.245499 3.033466
v 0.000000 -0.245499 3.283401
v -1.256503 -0.245499 3.033466
v -2.321715 -0.245499 2.321715
v -3.033466 -0.245499 1.256503
v -3.283401 -0.245499 -0.000000
v -3.033466 -0.245499 -1.256503
v -2.321715 -0.245499 -2.321715
v -1.256503 -0.245499 -3.033466
vn -0.1951 -0.0000 0.9808
vn -0.5556 -0.0000 0.8315
vn -0.8315 -0.0000 0.5556
vn -0.9808 -0.0000 0.1951
vn -0.9808 -0.0000 -0.1951
vn -0.8315 -0.0000 -0.5556
vn -0.5556 -0.0000 -0.8315
vn -0.1951 -0.0000 -0.9808
vn 0.1951 -0.0000 -0.9808
vn 0.5556 -0.0000 -0.8315
vn 0.8315 -0.0000 -0.5556
vn 0.9808 -0.0000 -0.1951
vn 0.9808 -0.0000 0.1951
vn 0.8315 -0.0000 0.5556
vn -0.0000 1.0000 -0.0000
vn 0.5556 -0.0000 0.8315
vn 0.1951 -0.0000 0.9808
vn 0.2732 0.9604 0.0543
vn -0.1547 0.9604 0.2316
vn -0.1547 0.9604 -0.2316
vn 0.2316 0.9604 -0.1547
vn 0.0543 0.9604 0.2732
vn -0.2732 0.9604 -0.0543
vn 0.0543 0.9604 -0.2732
vn 0.2316 0.9604 0.1547
vn -0.2316 0.9604 0.1547
vn -0.0543 0.9604 -0.2732
vn 0.2732 0.9604 -0.0543
vn -0.0543 0.9604 0.2732
vn -0.2316 0.9604 -0.1547
vn 0.1547 0.9604 -0.2316
vn 0.1547 0.9604 0.2316
vn -0.2732 0.9604 0.0543
vt 0.062500 0.984375
vt 0.062500 1.000000
vt 0.000000 1.000000
vt 0.000000 0.984375
vt 0.448781 0.250000
vt 0.390559 0.390559
vt 0.109441 0.109441
vt 0.468750 1.000000
vt 0.390625 1.000000
vt 0.359375 0.625000
vt 0.500000 0.625000
vt 0.843750 1.000000
vt 0.765625 1.000000
vt 0.734375 0.625000
vt 0.875000 0.625000
vt 0.218750 1.000000
vt 0.140625 1.000000
vt 0.109375 0.625000
vt 0.250000 0.625000
vt 0.718750 1.000000
vt 0.640625 1.000000
vt 0.609375 0.625000
vt 0.750000 0.625000
vt 0.093750 1.000000
vt 0.015625 1.000000
vt -0.015625 0.625000
vt 0.125000 0.625000
vt 0.968750 1.000000
vt 0.890625 1.000000
vt 0.859375 0.625000
vt 1.000000 0.625000
vt 0.343750 1.000000
vt 0.265625 1.000000
vt 0.234375 0.625000
vt 0.375000 0.625000
vt 0.593750 1.000000
vt 0.515625 1.000000
vt 0.484375 0.625000
vt 0.625000 0.625000
vt 0.326070 0.433649
vt 0.250000 0.448781
vt 0.173930 0.433649
vt 0.109441 0.390559
vt 0.066351 0.326070
vt 0.051219 0.250000
vt 0.066351 0.173930
vt 0.173930 0.066351
vt 0.250000 0.051219
vt 0.326070 0.066351
vt 0.390559 0.109441
vt 0.433649 0.173930
vt 0.433649 0.326070
s 0
usemtl eco_vent.001
f 1/1/1 2/2/1 4/3/1 3/4/1
f 3/1/2 4/2/2 6/3/2 5/4/2
f 5/1/3 6/2/3 8/3/3 7/4/3
f 7/1/4 8/2/4 10/3/4 9/4/4
f 9/1/5 10/2/5 12/3/5 11/4/5
f 11/1/6 12/2/6 14/3/6 13/4/6
f 13/1/7 14/2/7 16/3/7 15/4/7
f 15/1/8 16/2/8 18/3/8 17/4/8
f 17/1/9 18/2/9 20/3/9 19/4/9
f 19/1/10 20/2/10 22/3/10 21/4/10
f 21/1/11 22/2/11 24/3/11 23/4/11
f 23/1/12 24/2/12 26/3/12 25/4/12
f 25/1/13 26/2/13 28/3/13 27/4/13
f 27/1/14 28/2/14 30/3/14 29/4/14
f 10/5/15 6/6/15 22/7/15
f 29/1/16 30/2/16 32/3/16 31/4/16
f 31/1/17 32/2/17 2/3/17 1/4/17
f 9/8/18 11/9/18 38/10/18 37/11/18
f 19/12/19 21/13/19 43/14/19 42/15/19
f 29/16/20 31/17/20 48/18/20 47/19/20
f 5/20/21 7/21/21 36/22/21 35/23/21
f 15/24/22 17/25/22 41/26/22 40/27/22
f 25/8/23 27/9/23 46/10/23 45/11/23
f 1/28/24 3/29/24 34/30/24 33/31/24
f 11/32/25 13/33/25 39/34/25 38/35/25
f 21/20/26 23/21/26 44/22/26 43/23/26
f 31/24/27 1/25/27 33/26/27 48/27/27
f 7/36/28 9/37/28 37/38/28 36/39/28
f 17/28/29 19/29/29 42/30/29 41/31/29
f 27/32/30 29/33/30 47/34/30 46/35/30
f 3/12/31 5/13/31 35/14/31 34/15/31
f 13/16/32 15/17/32 40/18/32 39/19/32
f 23/36/33 25/37/33 45/38/33 44/39/33
f 6/6/15 4/40/15 2/41/15
f 2/41/15 32/42/15 30/43/15
f 30/43/15 28/44/15 26/45/15
f 26/45/15 24/46/15 22/7/15
f 22/7/15 20/47/15 18/48/15
f 18/48/15 16/49/15 14/50/15
f 14/50/15 12/51/15 10/5/15
f 10/5/15 8/52/15 6/6/15
f 6/6/15 2/41/15 30/43/15
f 30/43/15 26/45/15 6/6/15
f 26/45/15 22/7/15 6/6/15
f 22/7/15 18/48/15 14/50/15
f 14/50/15 10/5/15 22/7/15
o Cylinder.002
v 0.000000 0.363112 0.500000
v 0.191342 0.363112 0.461940
v 0.000000 -0.636888 -0.000000
v -0.191342 0.363112 0.461940
v -0.353553 0.363112 0.353553
v -0.461940 0.363112 0.191342
v -0.500000 0.363112 0.000000
v -0.461940 0.363112 -0.191342
v -0.353553 0.363112 -0.353553
v -0.191342 0.363112 -0.461940
v 0.000000 0.363112 -0.500000
v 0.191342 0.363112 -0.461940
v 0.353553 0.363112 -0.353553
v 0.461940 0.363112 -0.191342
v 0.500000 0.363112 0.000000
v 0.461940 0.363112 0.191342
v 0.353553 0.363112 0.353553
v -0.000000 0.609197 0.787713
v 0.301445 0.609197 0.727751
v -0.301445 0.609197 0.727751
v -0.556997 0.609197 0.556997
v -0.727751 0.609197 0.301445
v -0.787713 0.609197 0.000000
v -0.727751 0.609197 -0.301445
v -0.556997 0.609197 -0.556997
v -0.301445 0.609197 -0.727751
v -0.000000 0.609197 -0.787712
v 0.301445 0.609197 -0.727751
v 0.556997 0.609197 -0.556997
v 0.727751 0.609197 -0.301445
v 0.787713 0.609197 0.000000
v 0.727751 0.609197 0.301445
v 0.556997 0.609197 0.556997
v -0.000000 0.800739 1.222943
v 0.468000 0.800740 1.129852
v -0.468000 0.800740 1.129852
v -0.864751 0.800740 0.864751
v -1.129852 0.800740 0.468000
v -1.222943 0.800740 0.000000
v -1.129852 0.800740 -0.468000
v -0.864751 0.800740 -0.864751
v -0.468000 0.800740 -1.129852
v -0.000000 0.800740 -1.222943
v 0.468000 0.800740 -1.129852
v 0.864751 0.800740 -0.864751
v 1.129852 0.800740 -0.468000
v 1.222943 0.800740 0.000000
v 1.129852 0.800740 0.468000
v 0.864751 0.800740 0.864751
v -0.000000 0.844402 1.222943
v 0.468000 0.844402 1.129852
v -0.468000 0.844402 1.129852
v -0.864751 0.844402 0.864751
v -1.129852 0.844402 0.468000
v -1.222943 0.844402 0.000000
v -1.129852 0.844402 -0.468000
v -0.864751 0.844402 -0.864751
v -0.468000 0.844402 -1.129852
v -0.000000 0.844402 -1.222943
v 0.468000 0.844402 -1.129852
v 0.864751 0.844402 -0.864751
v 1.129852 0.844402 -0.468000
v 1.222943 0.844402 0.000000
v 1.129852 0.844402 0.468000
v 0.864751 0.844402 0.864751
v -0.000000 0.896555 0.898555
v 0.343862 0.896555 0.830156
v -0.343862 0.896555 0.830156
v -0.635374 0.896555 0.635374
v -0.830156 0.896555 0.343862
v -0.898555 0.896555 0.000000
v -0.830156 0.896555 -0.343862
v -0.635374 0.896555 -0.635374
v -0.343862 0.896555 -0.830156
v -0.000000 0.896555 -0.898555
v 0.343862 0.896555 -0.830156
v 0.635374 0.896555 -0.635374
v 0.830156 0.896555 -0.343862
v 0.898555 0.896555 0.000000
v 0.830156 0.896555 0.343862
v 0.635374 0.896555 0.635374
v -0.000000 0.929581 0.592059
v 0.226571 0.929581 0.546991
v -0.226571 0.929581 0.546991
v -0.418649 0.929581 0.418649
v -0.546991 0.929581 0.226571
v -0.592059 0.929581 0.000000
v -0.546991 0.929581 -0.226571
v -0.418649 0.929581 -0.418649
v -0.226571 0.929581 -0.546991
v -0.000000 0.929581 -0.592059
v 0.226571 0.929581 -0.546991
v 0.418649 0.929581 -0.418649
v 0.546991 0.929581 -0.226571
v 0.592059 0.929581 0.000000
v 0.546991 0.929581 0.226571
v 0.418649 0.929581 0.418649
v -0.000000 0.944304 0.243387
v 0.093140 0.944304 0.224860
v -0.093140 0.944304 0.224860
v -0.172101 0.944304 0.172101
v -0.224860 0.944304 0.093140
v -0.243387 0.944304 0.000000
v -0.224860 0.944304 -0.093140
v -0.172101 0.944304 -0.172101
v -0.093140 0.944304 -0.224860
v -0.000000 0.944304 -0.243387
v 0.093140 0.944304 -0.224860
v 0.172101 0.944304 -0.172101
v 0.224860 0.944304 -0.093140
v 0.243387 0.944304 0.000000
v 0.224860 0.944304 0.093140
v 0.172101 0.944304 0.172101
vn 0.6446 -0.7537 0.1282
vn 0.1752 -0.4403 0.8806
vn -0.1752 -0.4403 0.8806
vn -0.4988 -0.4403 0.7465
vn -0.7465 -0.4403 0.4988
vn -0.8806 -0.4403 0.1752
vn -0.8806 -0.4403 -0.1752
vn -0.7465 -0.4403 -0.4988
vn -0.4988 -0.4403 -0.7465
vn -0.1752 -0.4403 -0.8806
vn 0.1752 -0.4403 -0.8806
vn 0.4988 -0.4403 -0.7465
vn 0.7465 -0.4403 -0.4988
vn 0.8806 -0.4403 -0.1752
vn 0.8806 -0.4403 0.1752
vn 0.7465 -0.4403 0.4988
vn 0.4988 -0.4403 0.7465
vn 0.2274 -0.9124 0.3404
vn -0.3652 -0.7537 0.5465
vn -0.5465 -0.7537 -0.3652
vn 0.3652 -0.7537 -0.5465
vn 0.5465 -0.7537 0.3652
vn -0.5465 -0.7537 0.3652
vn -0.3652 -0.7537 -0.5465
vn 0.5465 -0.7537 -0.3652
vn 0.3652 -0.7537 0.5465
vn -0.6446 -0.7537 0.1282
vn 0.1282 -0.7537 0.6446
vn -0.1282 -0.7537 -0.6446
vn 0.6446 -0.7537 -0.1282
vn -0.6446 -0.7537 -0.1282
vn -0.1282 -0.7537 0.6446
vn 0.1282 -0.7537 -0.6446
vn 0.9808 -0.0000 0.1951
vn -0.0799 -0.9124 -0.4015
vn -0.0799 -0.9124 0.4015
vn 0.0799 -0.9124 -0.4015
vn -0.2274 -0.9124 0.3404
vn 0.2274 -0.9124 -0.3404
vn -0.3404 -0.9124 0.2274
vn 0.3404 -0.9124 -0.2274
vn -0.4015 -0.9124 0.0799
vn 0.4015 -0.9124 -0.0799
vn -0.4015 -0.9124 -0.0799
vn 0.4015 -0.9124 0.0799
vn -0.3404 -0.9124 -0.2274
vn 0.3404 -0.9124 0.2274
vn -0.2274 -0.9124 -0.3404
vn 0.0799 -0.9124 0.4015
vn 0.1587 0.9868 -0.0316
vn -0.8315 -0.0000 -0.5556
vn 0.8315 -0.0000 0.5556
vn -0.5556 -0.0000 -0.8315
vn 0.1951 -0.0000 0.9808
vn 0.5556 -0.0000 0.8315
vn -0.1951 -0.0000 -0.9808
vn -0.1951 -0.0000 0.9808
vn 0.1951 -0.0000 -0.9808
vn -0.5556 -0.0000 0.8315
vn 0.5556 -0.0000 -0.8315
vn -0.8315 -0.0000 0.5556
vn 0.8315 -0.0000 -0.5556
vn -0.9808 -0.0000 0.1951
vn 0.9808 -0.0000 -0.1951
vn -0.9808 -0.0000 -0.1951
vn -0.0607 0.9940 0.0908
vn -0.1587 0.9868 -0.0316
vn 0.1587 0.9868 0.0316
vn -0.1345 0.9868 -0.0899
vn 0.1345 0.9868 0.0899
vn -0.0899 0.9868 -0.1345
vn 0.0316 0.9868 0.1587
vn 0.0899 0.9868 0.1345
vn -0.0316 0.9868 -0.1587
vn -0.0316 0.9868 0.1587
vn 0.0316 0.9868 -0.1587
vn -0.0899 0.9868 0.1345
vn 0.0899 0.9868 -0.1345
vn -0.1345 0.9868 0.0899
vn 0.1345 0.9868 -0.0899
vn -0.1587 0.9868 0.0316
vn -0.0239 0.9991 -0.0358
vn 0.0607 0.9940 -0.0908
vn -0.0908 0.9940 0.0607
vn 0.0908 0.9940 -0.0607
vn -0.1071 0.9940 0.0213
vn 0.1071 0.9940 -0.0213
vn -0.1071 0.9940 -0.0213
vn 0.1071 0.9940 0.0213
vn -0.0908 0.9940 -0.0607
vn 0.0908 0.9940 0.0607
vn -0.0607 0.9940 -0.0908
vn 0.0213 0.9940 0.1071
vn 0.0607 0.9940 0.0908
vn -0.0213 0.9940 -0.1071
vn -0.0213 0.9940 0.1071
vn 0.0213 0.9940 -0.1071
vn -0.0000 1.0000 -0.0000
vn 0.0084 0.9991 0.0422
vn 0.0239 0.9991 0.0358
vn -0.0084 0.9991 -0.0422
vn -0.0084 0.9991 0.0422
vn 0.0084 0.9991 -0.0422
vn -0.0239 0.9991 0.0358
vn 0.0239 0.9991 -0.0358
vn -0.0358 0.9991 0.0239
vn 0.0358 0.9991 -0.0239
vn -0.0422 0.9991 0.0084
vn 0.0422 0.9991 -0.0084
vn -0.0422 0.9991 -0.0084
vn 0.0422 0.9991 0.0084
vn -0.0358 0.9991 -0.0239
vn 0.0358 0.9991 0.0239
vt 0.054688 0.531250
vt 0.101562 0.531250
vt 0.109375 0.625000
vt 0.046875 0.625000
vt 0.023438 0.421875
vt 0.000000 0.625000
vt 0.125000 0.531250
vt 0.187500 0.531250
vt 0.203125 0.625000
vt 0.203125 0.609375
vt 0.296875 0.609375
vt 0.296875 0.625000
vt 0.296875 0.531250
vt 0.390625 0.531250
vt 0.375000 0.593750
vt 0.312500 0.593750
vt 0.453125 0.531250
vt 0.445312 0.593750
vt 0.398438 0.593750
vt 0.460938 0.531250
vt 0.507812 0.531250
vt 0.492188 0.593750
vt 0.476562 0.593750
vt 0.626774 0.567026
vt 0.598276 0.498226
vt 0.529476 0.526724
vt 0.557974 0.595524
vt 0.578125 0.599532
vt 0.598276 0.595524
vt 0.615359 0.584109
vt 0.630782 0.546875
vt 0.626774 0.526724
vt 0.615359 0.509641
vt 0.578125 0.494218
vt 0.557974 0.498226
vt 0.540891 0.509641
vt 0.525468 0.546875
vt 0.529476 0.567026
vt 0.540891 0.584109
s 0
usemtl eco_vent
f 64/53/34 63/54/34 79/55/34 80/56/34
f 49/56/35 51/57/35 50/58/35
f 52/56/36 51/57/36 49/58/36
f 53/56/37 51/57/37 52/58/37
f 54/56/38 51/57/38 53/58/38
f 55/56/39 51/57/39 54/58/39
f 56/56/40 51/57/40 55/58/40
f 57/56/41 51/57/41 56/58/41
f 58/56/42 51/57/42 57/58/42
f 59/56/43 51/57/43 58/58/43
f 60/56/44 51/57/44 59/58/44
f 61/56/45 51/57/45 60/58/45
f 62/56/46 51/57/46 61/58/46
f 63/56/47 51/57/47 62/58/47
f 64/56/48 51/57/48 63/58/48
f 65/56/49 51/57/49 64/58/49
f 50/56/50 51/57/50 65/58/50
f 67/59/51 81/60/51 97/61/51 83/55/51
f 53/53/52 52/54/52 68/55/52 69/56/52
f 57/53/53 56/54/53 72/55/53 73/56/53
f 61/53/54 60/54/54 76/55/54 77/56/54
f 65/53/55 64/54/55 80/55/55 81/56/55
f 54/53/56 53/54/56 69/55/56 70/56/56
f 58/53/57 57/54/57 73/55/57 74/56/57
f 62/53/58 61/54/58 77/55/58 78/56/58
f 50/53/59 65/54/59 81/55/59 67/56/59
f 55/53/60 54/54/60 70/55/60 71/56/60
f 49/53/61 50/54/61 67/55/61 66/56/61
f 59/53/62 58/54/62 74/55/62 75/56/62
f 63/53/63 62/54/63 78/55/63 79/56/63
f 56/53/64 55/54/64 71/55/64 72/56/64
f 52/53/65 49/54/65 66/55/65 68/56/65
f 60/53/66 59/54/66 75/55/66 76/56/66
f 96/62/67 95/63/67 111/64/67 112/61/67
f 75/59/68 74/60/68 90/61/68 91/55/68
f 68/59/69 66/60/69 82/61/69 84/55/69
f 76/59/70 75/60/70 91/61/70 92/55/70
f 69/59/71 68/60/71 84/61/71 85/55/71
f 77/59/72 76/60/72 92/61/72 93/55/72
f 70/59/73 69/60/73 85/61/73 86/55/73
f 78/59/74 77/60/74 93/61/74 94/55/74
f 71/59/75 70/60/75 86/61/75 87/55/75
f 79/59/76 78/60/76 94/61/76 95/55/76
f 72/59/77 71/60/77 87/61/77 88/55/77
f 80/59/78 79/60/78 95/61/78 96/55/78
f 73/59/79 72/60/79 88/61/79 89/55/79
f 81/59/80 80/60/80 96/61/80 97/55/80
f 74/59/81 73/60/81 89/61/81 90/55/81
f 66/59/82 67/60/82 83/61/82 82/55/82
f 111/65/83 110/66/83 126/67/83 127/68/83
f 89/62/84 88/63/84 104/64/84 105/61/84
f 97/62/85 96/63/85 112/64/85 113/61/85
f 90/62/86 89/63/86 105/64/86 106/61/86
f 82/62/87 83/63/87 99/64/87 98/61/87
f 83/62/88 97/63/88 113/64/88 99/61/88
f 91/62/89 90/63/89 106/64/89 107/61/89
f 84/62/90 82/63/90 98/64/90 100/61/90
f 92/62/91 91/63/91 107/64/91 108/61/91
f 85/62/92 84/63/92 100/64/92 101/61/92
f 93/62/93 92/63/93 108/64/93 109/61/93
f 86/62/94 85/63/94 101/64/94 102/61/94
f 94/62/95 93/63/95 109/64/95 110/61/95
f 87/62/96 86/63/96 102/64/96 103/61/96
f 95/62/97 94/63/97 110/64/97 111/61/97
f 88/62/98 87/63/98 103/64/98 104/61/98
f 117/66/99 116/69/99 132/70/99 133/71/99
f 104/65/100 103/66/100 119/67/100 120/68/100
f 112/65/101 111/66/101 127/67/101 128/68/101
f 105/65/102 104/66/102 120/67/102 121/68/102
f 113/65/103 112/66/103 128/67/103 129/68/103
f 106/65/104 105/66/104 121/67/104 122/68/104
f 98/65/105 99/66/105 115/67/105 114/68/105
f 99/65/106 113/66/106 129/67/106 115/68/106
f 107/65/107 106/66/107 122/67/107 123/68/107
f 100/65/108 98/66/108 114/67/108 116/68/108
f 108/65/109 107/66/109 123/67/109 124/68/109
f 101/65/110 100/66/110 116/67/110 117/68/110
f 109/65/111 108/66/111 124/67/111 125/68/111
f 102/65/112 101/66/112 117/67/112 118/68/112
f 110/65/113 109/66/113 125/67/113 126/68/113
f 103/65/114 102/66/114 118/67/114 119/68/114
f 138/72/115 137/73/115 153/74/115 154/75/115
f 125/66/116 124/69/116 140/70/116 141/71/116
f 118/66/117 117/69/117 133/70/117 134/71/117
f 126/66/118 125/69/118 141/70/118 142/71/118
f 119/66/119 118/69/119 134/70/119 135/71/119
f 127/66/120 126/69/120 142/70/120 143/71/120
f 120/66/121 119/69/121 135/70/121 136/71/121
f 128/66/122 127/69/122 143/70/122 144/71/122
f 121/66/123 120/69/123 136/70/123 137/71/123
f 129/66/124 128/69/124 144/70/124 145/71/124
f 122/66/125 121/69/125 137/70/125 138/71/125
f 114/66/126 115/69/126 131/70/126 130/71/126
f 115/66/127 129/69/127 145/70/127 131/71/127
f 123/66/128 122/69/128 138/70/128 139/71/128
f 116/66/129 114/69/129 130/70/129 132/71/129
f 124/66/130 123/69/130 139/70/130 140/71/130
f 160/76/131 156/77/131 152/78/131
f 130/72/132 131/73/132 147/74/132 146/75/132
f 131/72/133 145/73/133 161/74/133 147/75/133
f 139/72/134 138/73/134 154/74/134 155/75/134
f 132/72/135 130/73/135 146/74/135 148/75/135
f 140/72/136 139/73/136 155/74/136 156/75/136
f 133/72/137 132/73/137 148/74/137 149/75/137
f 141/72/138 140/73/138 156/74/138 157/75/138
f 134/72/139 133/73/139 149/74/139 150/75/139
f 142/72/140 141/73/140 157/74/140 158/75/140
f 135/72/141 134/73/141 150/74/141 151/75/141
f 143/72/142 142/73/142 158/74/142 159/75/142
f 136/72/143 135/73/143 151/74/143 152/75/143
f 144/72/144 143/73/144 159/74/144 160/75/144
f 137/72/145 136/73/145 152/74/145 153/75/145
f 145/72/146 144/73/146 160/74/146 161/75/146
f 148/79/131 146/80/131 160/76/131
f 146/80/131 147/81/131 160/76/131
f 147/81/131 161/82/131 160/76/131
f 160/76/131 159/83/131 158/84/131
f 158/84/131 157/85/131 156/77/131
f 156/77/131 155/86/131 154/87/131
f 154/87/131 153/88/131 152/78/131
f 152/78/131 151/89/131 148/79/131
f 151/89/131 150/90/131 148/79/131
f 150/90/131 149/91/131 148/79/131
f 160/76/131 158/84/131 156/77/131
f 156/77/131 154/87/131 152/78/131
f 148/79/131 160/76/131 152/78/131
